<svg
	width="1008"
	height="379"
	viewBox="0 0 1008 379"
	fill="none"
	xmlns="http://www.w3.org/2000/svg"
>
	<g clipPath="url(#clip0_2007_6)">
		<path d="M87.14 41.1001V179.08L77.1 172.11L67.04 179.08V41.1201C70.05 42.6801 73.46 43.5601 77.06 43.5601C80.66 43.5601 84.13 42.6801 87.14 41.1001Z" fill="white" />
		<path d="M257.08 101.42V264.58H226.84V101.42H257.08ZM371.86 101.42L302.26 177.52L379.16 264.58H337.29L274.19 188.36V168.73L334.89 101.41H371.86V101.42Z" fill="white" stroke="white" strokeMiterlimit="10" />
		<path d="M382.021 227.27C382.021 203.46 399.361 191.56 434.051 191.56C442.191 191.56 450.331 192.32 458.471 193.84V184.82C458.471 174.1 450.751 168.73 435.311 168.73C422.231 168.73 407.701 170.63 391.731 174.44V150.48C407.701 146.68 422.231 144.78 435.311 144.78C470.911 144.78 488.711 157.94 488.711 184.26V264.58H471.141L460.421 253.85C450.001 261 438.511 264.58 425.961 264.58C396.671 264.58 382.031 252.14 382.031 227.27H382.021ZM434.051 212.09C419.521 212.09 412.261 217.04 412.261 226.92C412.261 237.57 418.341 242.89 430.511 242.89C440.551 242.89 449.871 239.77 458.471 233.53V214.36C450.861 212.84 442.731 212.08 434.051 212.08V212.09Z" fill="white" stroke="white" strokeMiterlimit="10" />
		<path d="M512.55 149.68C528.45 146.41 545.26 144.77 562.98 144.77C603.67 144.77 624.02 163.75 624.02 201.7C624.02 243.61 605.08 264.57 567.2 264.57C559.14 264.57 551 262.67 542.79 258.87V307.93H512.55V149.68ZM542.79 233.31C550.32 237.42 558.42 239.47 567.09 239.47C585.12 239.47 594.13 226.81 594.13 201.48C594.13 179.95 584.17 169.19 564.24 169.19C555.64 169.19 548.5 169.72 542.79 170.79V233.32V233.31Z" fill="white" stroke="white" strokeMiterlimit="10" />
		<path d="M666.57 101.42V121.39H645.46V101.42H666.57ZM666.57 144.78V264.58H645.46V144.78H666.57Z" fill="white" />
		<path d="M698.41 264.58V144.78H712.67L716.44 160.07C728.68 149.88 742.15 144.78 756.83 144.78C786.73 144.78 801.67 159.65 801.67 189.39V264.58H780.56V189.05C780.56 171.25 771.7 162.35 753.98 162.35C741.89 162.35 730.4 167.41 719.52 177.53V264.59H698.41V264.58Z" fill="white" />
		<path d="M826.55 264.58V138.96C826.55 109.98 842.98 95.4902 875.84 95.4902C884.89 95.4902 893.41 97.0102 901.4 100.05V117.17C893.87 114.13 885.31 112.6 875.73 112.6C857.02 112.6 847.66 121.08 847.66 138.05V144.78H884.74V161.89H847.66V264.58H826.55Z" fill="white" />
		<path d="M893.43 204.68C893.43 164.74 912.45 144.78 950.48 144.78C988.51 144.78 1007.53 164.75 1007.53 204.68C1007.53 244.61 988.51 264.47 950.48 264.47C912.45 264.47 893.58 244.54 893.43 204.68ZM950.48 247.47C974.44 247.47 986.42 233.06 986.42 204.23C986.42 175.4 974.44 161.9 950.48 161.9C926.52 161.9 914.54 176.01 914.54 204.23C914.54 232.45 926.52 247.47 950.48 247.47Z" fill="white" />
		<path d="M149.86 69.0698V122L94.79 159.92L149.86 197.7V311.87H129.76V208.29L87.15 179.08L77.1 172.11L67.05 179.08L31.81 203.33V311.87H11.71V69.0698H31.81V178.94L67.05 154.69L87.15 140.89L129.76 111.54V69.0698H149.86Z" fill="white" />
		<path d="M37.1626 85.7448C45.6643 77.2431 45.6643 63.4591 37.1626 54.9574C28.6609 46.4556 14.8769 46.4556 6.37516 54.9574C-2.12655 63.4591 -2.12656 77.2431 6.37516 85.7448C14.8769 94.2465 28.6609 94.2465 37.1626 85.7448Z" fill="white" />
		<path d="M148.187 90.4655C159.295 85.8644 164.57 73.1296 159.969 62.0216C155.368 50.9136 142.633 45.6387 131.525 50.2398C120.417 54.8409 115.142 67.5756 119.743 78.6837C124.344 89.7917 137.079 95.0666 148.187 90.4655Z" fill="white" />
		<path d="M161.651 314.28C161.651 318.3 160.581 322.05 158.571 325.27C154.951 331.7 147.851 336.12 139.811 336.12C131.771 336.12 124.801 331.7 121.181 325.27C119.171 322.05 118.101 318.3 118.101 314.28C118.101 305.97 122.791 298.74 129.761 295.25C132.711 293.51 136.191 292.57 139.811 292.57C143.431 292.57 146.911 293.51 149.861 295.12C156.831 298.6 161.651 305.97 161.651 314.28Z" fill="white" />
		<path d="M43.5998 314.28C43.5998 318.3 42.5298 322.05 40.5198 325.27C36.8998 331.7 29.7998 336.12 21.7598 336.12C13.7198 336.12 6.7498 331.7 3.1298 325.27C1.1198 322.05 0.0498047 318.3 0.0498047 314.28C0.0498047 305.97 4.7398 298.74 11.7098 295.12C14.6598 293.51 18.1398 292.57 21.7598 292.57C25.3798 292.57 28.8598 293.51 31.8098 295.12C38.7798 298.6 43.5998 305.97 43.5998 314.28Z" fill="white" />
		<path d="M98.2622 362.108C101.024 350.406 93.7769 338.681 82.0752 335.92C70.3735 333.158 58.6484 340.405 55.8865 352.107C53.1247 363.808 60.3719 375.533 72.0736 378.295C83.7753 381.057 95.5004 373.81 98.2622 362.108Z" fill="white" />
		<path d="M98.8403 21.78C98.8403 30.18 94.0803 37.46 87.1403 41.1V23.23H67.0403V41.12C60.0503 37.5 55.2803 30.2 55.2803 21.78C55.2803 9.76 65.0403 0 77.0603 0C89.0803 0 98.8403 9.76 98.8403 21.78Z" fill="white" />
		<path d="M87.14 23.23V41.1C84.13 42.68 80.7 43.56 77.06 43.56C73.42 43.56 70.05 42.68 67.04 41.12V23.23H87.14Z" fill="white" />
		<path d="M77.0998 188.46L87.1498 195.29V357.16H67.0498V195.29L77.0998 188.46Z" fill="white" />
	</g>
	<defs>
		<clipPath id="clip0_2007_6">
			<rect width="1007.53" height="378.9" fill="white" />
		</clipPath>
	</defs>
</svg>